<svg width="199" height="62" viewBox="0 0 199 62" fill="none" xmlns="http://www.w3.org/2000/svg">
<path fill-rule="evenodd" clip-rule="evenodd" d="M97.954 9.98398C99.8246 8.11361 102.857 8.11361 104.728 9.98398C106.598 11.8545 106.598 14.8871 104.728 16.7577L93.3239 28.1615C90.0497 23.7735 90.4054 17.5328 94.3909 13.5473L97.954 9.98398Z" fill="#EBBC79"/>
<path fill-rule="evenodd" clip-rule="evenodd" d="M114.257 35.7129C116.127 37.5833 116.127 40.6161 114.257 42.4864C112.387 44.357 109.354 44.357 107.483 42.4864L96.0797 31.0828C100.468 27.8086 106.708 28.1642 110.694 32.1497L114.257 35.7129Z" fill="#EBBC79"/>
<path fill-rule="evenodd" clip-rule="evenodd" d="M88.5281 52.0158C86.6577 53.8864 83.6249 53.8864 81.7546 52.0158C79.8841 50.1453 79.8841 47.1127 81.7546 45.2422L93.1583 33.8385C96.4324 38.2265 96.0768 44.4672 92.0913 48.4526L88.5281 52.0158Z" fill="#EBBC79"/>
<path fill-rule="evenodd" clip-rule="evenodd" d="M72.2253 26.2869C70.3548 24.4164 70.3548 21.3838 72.2253 19.5133C74.0958 17.6428 77.1284 17.6428 78.9989 19.5133L90.4027 30.9171C86.0147 34.1912 79.7739 33.8356 75.7885 29.8502L72.2253 26.2869Z" fill="#EBBC79"/>
<path fill-rule="evenodd" clip-rule="evenodd" d="M95.4058 50.6192C98.1638 47.5527 99.4457 43.6287 99.2512 39.7653L104.728 45.2421C104.742 45.2557 104.755 45.2693 104.769 45.2829V49.193C104.769 51.8382 102.625 53.9826 99.9795 53.9826C97.8309 53.9826 96.0128 52.5679 95.4058 50.6192Z" fill="#EBBC79"/>
<path fill-rule="evenodd" clip-rule="evenodd" d="M73.6218 33.1643C76.6882 35.9225 80.6122 37.2044 84.4756 37.01L78.9989 42.4867C78.9852 42.5003 78.9716 42.5141 78.9581 42.5277H75.0481C72.4028 42.5278 70.2584 40.3833 70.2584 37.7381C70.2584 35.5896 71.6731 33.7714 73.6218 33.1643Z" fill="#EBBC79"/>
<path fill-rule="evenodd" clip-rule="evenodd" d="M112.86 28.8357C109.794 26.0775 105.87 24.7955 102.007 24.9899L107.483 19.5133C107.497 19.4997 107.511 19.4859 107.524 19.4722H111.434C114.08 19.4722 116.224 21.6167 116.224 24.2619C116.224 26.4105 114.809 28.2286 112.86 28.8357Z" fill="#EBBC79"/>
<path fill-rule="evenodd" clip-rule="evenodd" d="M91.0767 11.3806C88.3185 14.4471 87.0367 18.371 87.2311 22.2345L81.7544 16.7578C81.7407 16.7442 81.7271 16.7306 81.7133 16.717V12.8069C81.7133 10.1616 83.8577 8.01711 86.503 8.01711C88.6515 8.01711 90.4696 9.43193 91.0767 11.3806Z" fill="#EBBC79"/>
<path fill-rule="evenodd" clip-rule="evenodd" d="M86.5032 4.12032C81.7058 4.12032 77.8166 8.00947 77.8166 12.8069V14.4964C74.9304 13.7423 71.7317 14.496 69.4699 16.7578C66.0776 20.1501 66.0776 25.6502 69.4699 29.0425L70.6645 30.2371C68.0904 31.7448 66.3617 34.5395 66.3617 37.738C66.3617 42.5355 70.2508 46.4246 75.0483 46.4246H76.7377C75.9836 49.3109 76.7373 52.5095 78.999 54.7712C82.3914 58.1635 87.8915 58.1635 91.2838 54.7712L94.8469 51.2081C97.9902 48.0648 99.4582 43.8806 99.2511 39.7652L104.728 45.2419C108.12 48.6343 113.621 48.6343 117.013 45.2419C120.405 41.8496 120.405 36.3495 117.013 32.9573L115.819 31.7629C118.392 30.2552 120.121 27.4605 120.121 24.2619C120.121 19.4645 116.231 15.5753 111.434 15.5753H109.745C110.499 12.689 109.745 9.49032 107.483 7.22854C104.091 3.83619 98.5912 3.83619 95.1988 7.22854L91.6356 10.7918C88.4923 13.935 87.0243 18.1191 87.2314 22.2345L81.7547 16.7578C81.7409 16.7442 81.7273 16.7306 81.7136 16.7169V12.8069C81.7136 10.1617 83.858 8.01728 86.5032 8.01728C88.6518 8.01728 90.4699 9.43196 91.0769 11.3807C91.2568 11.1806 91.4431 10.9843 91.6356 10.7918L94.0041 8.42312C92.4965 5.84904 89.7017 4.12032 86.5032 4.12032ZM107.524 19.4723C107.511 19.4859 107.497 19.4997 107.483 19.5133L102.007 24.9899C105.87 24.7955 109.794 26.0773 112.86 28.8357C114.809 28.2286 116.225 26.4104 116.225 24.2619C116.225 21.6167 114.08 19.4723 111.434 19.4723H107.524ZM78.9581 42.5277C78.9717 42.5139 78.9853 42.5002 78.999 42.4866L84.4757 37.0098C80.6123 37.2043 76.6885 35.9224 73.622 33.1643C71.6733 33.7714 70.2585 35.5895 70.2585 37.738C70.2585 40.3833 72.4031 42.5277 75.0483 42.5277H78.9581ZM99.9794 57.8797C96.7808 57.8797 93.9861 56.1508 92.4784 53.5768L94.8469 51.2081C95.0395 51.0156 95.2257 50.8192 95.4056 50.6192C96.0127 52.5679 97.8307 53.9827 99.9794 53.9827C102.625 53.9827 104.769 51.8383 104.769 49.1931V45.283C105.892 46.3908 107.241 47.131 108.666 47.5034V49.1931C108.666 53.9905 104.777 57.8797 99.9794 57.8797ZM104.728 9.98403C102.857 8.11365 99.8248 8.11365 97.9543 9.98403L94.3911 13.5473C90.4057 17.5328 90.05 23.7735 93.3241 28.1615L104.728 16.7577C106.598 14.8871 106.598 11.8545 104.728 9.98403ZM114.257 42.4864C116.127 40.6159 116.127 37.5833 114.257 35.7128L110.694 32.1496C106.708 28.1642 100.468 27.8085 96.0796 31.0826L107.483 42.4864C109.354 44.3569 112.387 44.3569 114.257 42.4864ZM88.5282 52.0157C86.6577 53.8862 83.6251 53.8862 81.7545 52.0157C79.8842 50.1452 79.8842 47.1126 81.7545 45.2421L93.1584 33.8382C96.4325 38.2262 96.0768 44.4671 92.0914 48.4525L88.5282 52.0157ZM72.2254 19.5133C70.355 21.3838 70.355 24.4164 72.2254 26.2869L75.7887 29.8502C79.7742 33.8356 86.0149 34.1912 90.4029 30.9171L78.999 19.5133C77.1285 17.6429 74.0959 17.6429 72.2254 19.5133Z" fill="#333239"/>
<path d="M2.0658 21.6862H6.32573V34.9235H13.6423V38.5095H2.0658V21.6862Z" fill="#333239"/>
<path d="M21.3769 38.8706C19.9489 38.8706 18.6973 38.6139 17.6223 38.1005C16.5473 37.5709 15.713 36.8489 15.1193 35.9344C14.5417 35.0037 14.2529 33.9368 14.2529 32.7333C14.2529 31.53 14.5417 30.471 15.1193 29.5565C15.713 28.6258 16.5473 27.9038 17.6223 27.3904C18.6973 26.8608 19.9489 26.5961 21.3769 26.5961C22.805 26.5961 24.0564 26.8608 25.1314 27.3904C26.2065 27.9038 27.0328 28.6258 27.6104 29.5565C28.2041 30.471 28.5009 31.53 28.5009 32.7333C28.5009 33.9368 28.2041 35.0037 27.6104 35.9344C27.0328 36.8489 26.2065 37.5709 25.1314 38.1005C24.0564 38.6139 22.805 38.8706 21.3769 38.8706ZM21.3769 35.5733C22.2273 35.5733 22.9012 35.3246 23.3985 34.8273C23.9121 34.3138 24.1687 33.6159 24.1687 32.7333C24.1687 31.8509 23.9121 31.1609 23.3985 30.6636C22.9012 30.1501 22.2273 29.8934 21.3769 29.8934C20.5265 29.8934 19.8446 30.1501 19.3312 30.6636C18.8337 31.1609 18.5851 31.8509 18.5851 32.7333C18.5851 33.6159 18.8337 34.3138 19.3312 34.8273C19.8446 35.3246 20.5265 35.5733 21.3769 35.5733Z" fill="#333239"/>
<path d="M36.4576 44.0452C35.6875 44.0452 34.9092 43.973 34.1231 43.8286C33.3529 43.6841 32.6869 43.4917 32.1254 43.2509V40.3147C33.3929 40.8602 34.837 41.133 36.4576 41.133C37.6289 41.133 38.4713 40.8922 38.9847 40.4109C39.5142 39.9296 39.7789 39.2236 39.7789 38.293V37.5951C39.3137 37.9962 38.736 38.309 38.046 38.5337C37.3721 38.7584 36.6501 38.8706 35.88 38.8706C34.6606 38.8706 33.5855 38.6139 32.6549 38.1005C31.7243 37.587 30.9942 36.8649 30.4648 35.9344C29.9513 35.0037 29.6946 33.9368 29.6946 32.7333C29.6946 31.5139 29.9513 30.4389 30.4648 29.5084C30.9782 28.5777 31.7002 27.8636 32.6309 27.3663C33.5614 26.8529 34.6285 26.5961 35.8318 26.5961C37.4845 26.5961 38.8483 27.1015 39.9233 28.1124V26.9571H44.0149V37.7154C44.0149 39.721 43.397 41.2774 42.1616 42.3846C40.9423 43.4917 39.0409 44.0452 36.4576 44.0452ZM36.9389 35.5974C37.5968 35.5974 38.1824 35.429 38.6958 35.092C39.2094 34.755 39.5703 34.3058 39.7789 33.7442V31.7226C39.5543 31.1609 39.1852 30.7197 38.6718 30.3987C38.1583 30.0619 37.5808 29.8934 36.9389 29.8934C36.0726 29.8934 35.3745 30.1501 34.8451 30.6636C34.3155 31.1609 34.0508 31.8428 34.0508 32.7093C34.0508 33.5917 34.3155 34.2977 34.8451 34.8273C35.3745 35.3407 36.0726 35.5974 36.9389 35.5974Z" fill="#333239"/>
<path d="M52.2134 38.8706C50.7854 38.8706 49.5339 38.6139 48.4589 38.1005C47.3839 37.5709 46.5495 36.8489 45.9559 35.9344C45.3782 35.0037 45.0894 33.9368 45.0894 32.7333C45.0894 31.53 45.3782 30.471 45.9559 29.5565C46.5495 28.6258 47.3839 27.9038 48.4589 27.3904C49.5339 26.8608 50.7854 26.5961 52.2134 26.5961C53.6414 26.5961 54.8929 26.8608 55.9679 27.3904C57.043 27.9038 57.8693 28.6258 58.447 29.5565C59.0406 30.471 59.3375 31.53 59.3375 32.7333C59.3375 33.9368 59.0406 35.0037 58.447 35.9344C57.8693 36.8489 57.043 37.5709 55.9679 38.1005C54.8929 38.6139 53.6414 38.8706 52.2134 38.8706ZM52.2134 35.5733C53.0638 35.5733 53.7377 35.3246 54.2352 34.8273C54.7485 34.3138 55.0053 33.6159 55.0053 32.7333C55.0053 31.8509 54.7485 31.1609 54.2352 30.6636C53.7377 30.1501 53.0638 29.8934 52.2134 29.8934C51.3631 29.8934 50.6811 30.1501 50.1677 30.6636C49.6702 31.1609 49.4215 31.8509 49.4215 32.7333C49.4215 33.6159 49.6702 34.3138 50.1677 34.8273C50.6811 35.3246 51.3631 35.5733 52.2134 35.5733Z" fill="#333239"/>
<path d="M127.278 21.6862H131.538V38.5095H127.278V21.6862Z" fill="#333239"/>
<path d="M133.695 26.9571H137.787V28.1124C138.861 27.1015 140.225 26.5961 141.878 26.5961C143.081 26.5961 144.149 26.8529 145.079 27.3663C146.01 27.8636 146.731 28.5777 147.245 29.5084C147.758 30.4229 148.016 31.4899 148.016 32.7093C148.016 33.9127 147.758 34.9877 147.245 35.9344C146.731 36.8649 146.01 37.587 145.079 38.1005C144.165 38.6139 143.097 38.8706 141.878 38.8706C141.108 38.8706 140.369 38.7503 139.664 38.5096C138.974 38.285 138.396 37.972 137.931 37.5709V43.7804H133.695V26.9571ZM140.771 35.5733C141.638 35.5733 142.336 35.3167 142.864 34.8032C143.394 34.2898 143.659 33.5917 143.659 32.7093C143.659 31.8268 143.394 31.1369 142.864 30.6395C142.336 30.1261 141.638 29.8693 140.771 29.8693C140.129 29.8693 139.551 30.0378 139.038 30.3747C138.524 30.6957 138.156 31.1369 137.931 31.6984V33.7442C138.156 34.3058 138.524 34.755 139.038 35.092C139.551 35.4129 140.129 35.5733 140.771 35.5733Z" fill="#333239"/>
<path d="M154.33 38.8706C153.4 38.8706 152.43 38.7744 151.419 38.5818C150.408 38.4054 149.605 38.1486 149.012 37.8116V34.7069C149.669 35.092 150.455 35.4129 151.37 35.6697C152.3 35.9103 153.151 36.0306 153.922 36.0306C154.482 36.0306 154.892 35.9905 155.148 35.9103C155.406 35.8301 155.534 35.6697 155.534 35.429C155.534 35.2364 155.446 35.0839 155.27 34.9716C155.109 34.8433 154.803 34.7149 154.354 34.5866C153.922 34.4422 153.416 34.2898 152.838 34.1293C151.86 33.8404 151.09 33.5436 150.528 33.2387C149.966 32.9339 149.549 32.5488 149.276 32.0835C149.004 31.6183 148.867 31.0326 148.867 30.3266C148.867 29.075 149.357 28.1445 150.335 27.5347C151.33 26.9089 152.686 26.5961 154.403 26.5961C155.237 26.5961 156.112 26.6844 157.026 26.8608C157.957 27.0374 158.654 27.27 159.12 27.5589V30.6155C158.639 30.2946 157.996 30.0297 157.194 29.8212C156.408 29.6126 155.67 29.5084 154.98 29.5084C154.435 29.5084 154.009 29.5644 153.705 29.6767C153.4 29.7731 153.248 29.9495 153.248 30.2063C153.248 30.447 153.4 30.6315 153.705 30.7598C154.009 30.8881 154.555 31.0487 155.341 31.2411C155.855 31.3696 156.072 31.4256 155.991 31.4096C157.018 31.6824 157.812 31.9873 158.374 32.3242C158.936 32.6612 159.328 33.0623 159.553 33.5276C159.794 33.9768 159.914 34.5545 159.914 35.2605C159.914 36.3676 159.433 37.25 158.471 37.9079C157.523 38.5497 156.143 38.8706 154.33 38.8706Z" fill="#333239"/>
<path d="M166.238 38.8706C164.65 38.8706 163.455 38.4294 162.653 37.5469C161.867 36.6644 161.474 35.5012 161.474 34.0571V26.9571H165.71V33.5757C165.71 34.9075 166.311 35.5733 167.515 35.5733C168.06 35.5733 168.558 35.445 169.007 35.1882C169.455 34.9315 169.825 34.5545 170.113 34.0571V26.9571H174.349V38.5095H170.259V37.2581C169.761 37.7875 169.159 38.1886 168.453 38.4614C167.748 38.7342 167.009 38.8706 166.238 38.8706Z" fill="#333239"/>
<path d="M176.518 26.9571H180.442V28.2087C180.923 27.6953 181.477 27.3021 182.102 27.0293C182.728 26.7405 183.393 26.5961 184.1 26.5961C184.966 26.5961 185.656 26.7244 186.17 26.9812C186.7 27.2379 187.124 27.623 187.445 28.1364C187.926 27.6551 188.512 27.278 189.202 27.0053C189.893 26.7325 190.591 26.5961 191.296 26.5961C192.82 26.5961 193.904 26.9893 194.545 27.7755C195.187 28.5456 195.508 29.6607 195.508 31.1208V38.5096H191.464V31.7226C191.464 31.0807 191.344 30.6155 191.103 30.3266C190.863 30.0378 190.461 29.8934 189.901 29.8934C189.178 29.8934 188.592 30.1501 188.143 30.6636C188.159 30.9363 188.167 31.3535 188.167 31.915V38.5096H184.124V31.5541C184.124 30.9604 184.02 30.5351 183.811 30.2785C183.602 30.0218 183.233 29.8934 182.705 29.8934C181.885 29.8934 181.18 30.3506 180.586 31.2653V38.5096H176.518V26.9571Z" fill="#333239"/>
</svg>
